PathFileType	4	(X/Y/Z)	pose_F01_0-96.trc
DataRate	CameraRate	NumFrames	NumMarkers	Units	OrigDataRate	OrigDataStartFrame	OrigNumFrames
30	30	9	21	m	30	60	96
Frame#	Time	CHip			RHip			RKnee			RAnkle			RBigToe			RSmallToe			RHeel			LHip			LKnee			LAnkle			LBigToe			LSmallToe			LHeel			Neck			Nose			RShoulder			RElbow			RWrist			LShoulder			LElbow			LWrist			
		X1	Y1	Z1	X2	Y2	Z2	X3	Y3	Z3	X4	Y4	Z4	X5	Y5	Z5	X6	Y6	Z6	X7	Y7	Z7	X8	Y8	Z8	X9	Y9	Z9	X10	Y10	Z10	X11	Y11	Z11	X12	Y12	Z12	X13	Y13	Z13	X14	Y14	Z14	X15	Y15	Z15	X16	Y16	Z16	X17	Y17	Z17	X18	Y18	Z18	X19	Y19	Z19	X20	Y20	Z20	X21	Y21	Z21	
60	2.0	-0.21101203020799095	1.8962810338057763	-0.5344564388432037	-0.22070206814573695	1.8943135765997603	-0.46686573177904295	-0.2324037279901271	1.7410549501453076	-0.4373539755260217	-0.21007927529068124	1.6104133777190444	-0.414751588724783	-0.23345468462848853	1.557756867174523	-0.39809297195736826	-0.23825937394165875	1.565235508475477	-0.37566622824226686	-0.2032273396785264	1.6088062076603427	-0.4270743705440865	-0.19498893582248011	1.8983694050447122	-0.603054634907658	-0.20596834813005632	1.7418637278030753	-0.5597706085545381	-0.18785831158230812	1.6034639783301183	-0.5325779605388188	-0.2107622533369546	1.5564391083285267	-0.5245779780488942	-0.19837246913730558	1.5629361932532895	-0.5558706640948168	-0.1820548429758347	1.596782993976113	-0.5200433043547369	-0.2095603520750076	2.066687706261752	-0.5450919396530819	-0.23924933278220137	2.1260020339309733	-0.526564841971504	-0.22226486278994434	2.0600575125446223	-0.455382659071705	-0.2586641133064758	2.0371503321941025	-0.30941656564616604	-0.247153993258888	2.0916328795753074	-0.3582338923062824	-0.19558664899975223	2.073445942093878	-0.6378283362597073	-0.1885504908680651	2.0668023008270073	-0.7296593643282284	-0.19227364244626008	2.1139062153883637	-0.7128836337975974
61	2.033333333333333	-0.2079759793773607	1.8746300825920867	-0.5300904732406024	-0.2185887413780385	1.8728905712524109	-0.46544917756647874	-0.2326729082201792	1.713985516673689	-0.4334995453151286	-0.20135270161764865	1.5964118911315766	-0.4138446698971684	-0.23157657848079038	1.5581445876753321	-0.3974774970472084	-0.23558409999741453	1.56921545998386	-0.3719820468871309	-0.19384246857686818	1.5932626948103006	-0.42246644247036647	-0.19229352891814175	1.8770499719289222	-0.5987786624095611	-0.20854096693636223	1.7203615675011372	-0.554607744256857	-0.1872804261469981	1.5917266078026713	-0.5320501462977896	-0.2078019930605933	1.5522388457333167	-0.5314322603083435	-0.1959397059308286	1.5586211637706016	-0.5579832450234845	-0.17884305709291531	1.584139984562075	-0.522562347994634	-0.20388159635093395	2.0423298903758944	-0.546890353856665	-0.23350200011512418	2.103630561220879	-0.525894748864357	-0.2198363572915279	2.0349841908313797	-0.457504517636421	-0.2510624448799861	1.9940016205201312	-0.32878842769951694	-0.24838624224160416	2.0502225697451992	-0.3730026015582378	-0.18457910360290555	2.0461328372240093	-0.6408722175738656	-0.8115935215802469	1.9629688091611974	-0.04980322874364129	-0.19429956924704178	2.077549863826521	-0.6985280810913289
62	2.066666666666667	-0.2076255013466764	1.8517150944759486	-0.5318130350907238	-0.2182500952081542	1.849762030925729	-0.45856434249097755	-0.23749387104989036	1.7020096312774906	-0.43588638858961504	-0.20075387344675394	1.5874911195288168	-0.41769341321028747	-0.2296984723330922	1.558532308176141	-0.3968620221370486	-0.2329088260531703	1.5731954114922428	-0.36829786553199484	-0.19541945798403842	1.5806955716088944	-0.4227556534065733	-0.19280847754764233	1.8536407510296427	-0.5955150198390793	-0.21999390634655996	1.7059160723287923	-0.5404331725281492	-0.18928883778245498	1.5877567769304561	-0.5245843502911948	-0.2094618379099496	1.552259742340383	-0.5298349887679126	-0.19735148259963747	1.559768095969345	-0.55220896525045	-0.18033364456555664	1.5802167897886337	-0.5112318069216641	-0.20484664772505576	2.0203884040856104	-0.5447573142924141	-0.230242265599082	2.0914905685717318	-0.5311404023801023	-0.2195900271845605	2.014890130333326	-0.45166452666921647	-0.2434607764534964	1.9508529088461601	-0.34816028975286784	-0.24961849122432034	2.0088122599150906	-0.38777131081019317	-0.1883918674547061	2.024624273290775	-0.6401414483069491	-1.4346365522924287	1.8591353174953875	0.630052906840946	-0.19632549604782346	2.0411935122646776	-0.6841725283850604
63	2.1	-0.20657345533889163	1.8615544923727787	-0.535740949980474	-0.21815104986223446	1.8583234597977871	-0.46546114896231344	-0.2331168908014086	1.7053199514525934	-0.4274046694140627	-0.2003991353760119	1.5914749131895185	-0.4140690221459012	-0.22782036618539406	1.5589200286769502	-0.39624654722688873	-0.23023355210892607	1.5771753630006256	-0.3646136841768588	-0.19395027664857098	1.5832970298558255	-0.4246985320125308	-0.19369560050229004	1.8631722267476116	-0.5971330667181992	-0.22256579080557123	1.7073823269433779	-0.5378911436381157	-0.1905108206877795	1.586792044348804	-0.5273333330729673	-0.20963715957967896	1.5531649070405447	-0.529723296668282	-0.19844035933661153	1.5601196432983075	-0.5552669904141578	-0.18330573426725996	1.5802270034809915	-0.5123716564538631	-0.20519908234365128	2.02324590003612	-0.5468014551744392	-0.2293651640049068	2.0905566467816747	-0.5373194226191742	-0.21893990340724775	2.0181615805305135	-0.45076716799490724	-0.23901179387742777	1.946130928460431	-0.36197838911556995	-0.24726312915111934	2.0016885139344196	-0.4107474104452242	-0.18888329553403377	2.027616359218873	-0.6426643368687276	-0.19521989490671085	1.9493015365197133	-0.6843135838304514	-0.19835142284860516	2.004837160702835	-0.6698169756787918
64	2.1333333333333333	-0.20645244981068456	1.882342104617151	-0.5392881593562946	-0.217968321051014	1.881219237771814	-0.4697034906991619	-0.22585593377888494	1.7344088055929527	-0.4306075248721303	-0.2018077930581936	1.6059630529890425	-0.4131469337832053	-0.2259422600376959	1.5593077491777592	-0.3956310723167289	-0.22755827816468183	1.5811553145090085	-0.3609295028217228	-0.1973872465042629	1.6006361142349377	-0.4221541031857219	-0.19363176226450782	1.883723339475627	-0.600390014209576	-0.21278723851658787	1.729648916820077	-0.5512185185974382	-0.19310453252152582	1.596453112453981	-0.5341723956652215	-0.2082025591860007	1.5565175269233904	-0.5224812204971163	-0.19960725996146564	1.561640067116646	-0.5584925379904883	-0.18831301676094048	1.5897468371888754	-0.5250218722755546	-0.2006264532591515	2.0470324908193445	-0.556768621409486	-0.22482060633153042	2.111565273069544	-0.5458584268866303	-0.21467482636165605	2.0417307538282383	-0.4696754557095989	-0.23936612190353515	1.9783959853199733	-0.372331883430709	-0.24668219885776735	2.039455875292628	-0.4024672982466863	-0.1832682219675312	2.0503234926328027	-0.6488251585845228	-0.19491066965338094	2.007367845324071	-0.7172916802195864	-0.1935930911182711	2.050784807757489	-0.6871032397116176
65	2.1666666666666665	-0.206120022514888	1.9147500819627226	-0.5479091246180208	-0.21798743238452511	1.9125015801905745	-0.4784330700979691	-0.22745480243215424	1.7618082727898143	-0.4369660872861141	-0.2046570877349151	1.6216143837550785	-0.40310916361745014	-0.22118146056987578	1.5762565603976957	-0.39282963321727965	-0.2248830042204376	1.5851352660173914	-0.3572453214665868	-0.1972801995255012	1.6199387586291636	-0.4117487340067129	-0.19217837122436998	1.9149756023173972	-0.6139721231252687	-0.19685111465219177	1.7626617380074254	-0.5724256169886259	-0.19297608624492182	1.6061103611967074	-0.548936154990936	-0.20914584745449388	1.5591105201527198	-0.5173896314417276	-0.19739835686082552	1.5644968427048749	-0.5611646492660703	-0.18820262502115948	1.5984857436551954	-0.5401420472739077	-0.19523210268828992	2.0761582212164513	-0.5739960997887753	-0.2164646162201585	2.144476692785748	-0.5645340824819807	-0.21050044292131737	2.072754196058766	-0.482851953779983	-0.24354930857504503	2.0188098933189043	-0.36626184697753567	-0.2461012685644154	2.077223236650836	-0.39418718604814834	-0.17745060648161878	2.082530749328299	-0.6658071134499063	-0.18843309512225678	2.05063092515182	-0.7354637460867781	-0.18883475938793703	2.096732454812143	-0.7043895037444433
66	2.2	-0.20303127022594986	1.9278598182304214	-0.5515685978390209	-0.2169752790216696	1.9272096722038785	-0.4803635248874441	-0.23117866735192905	1.7777864094784186	-0.4482147229738253	-0.19113700892655128	1.6644146371052888	-0.40954247217006623	-0.20637305569027128	1.6288868251163202	-0.38720568700827573	-0.20575722151463682	1.6363785049286097	-0.36092482427033706	-0.1831006555889405	1.6587133467371706	-0.4181118746450015	-0.19086794712472585	1.9297974428067424	-0.6154725374955611	-0.1901029187181112	1.783272672521786	-0.5815725018979514	-0.18976943204765903	1.6302465060605733	-0.5513199319298748	-0.20497422474497576	1.5654908753159957	-0.517825250461986	-0.19770504569871353	1.5719484224354452	-0.5571712848343355	-0.18562937968846616	1.6199069357341442	-0.5369998996001429	-0.19754220930770344	2.0927244051081324	-0.5755731575273215	-0.2181474547324343	2.15681494252573	-0.5636596490397199	-0.21181742405949675	2.085933839278743	-0.48994738876368216	-0.2477324952465549	2.059223801317835	-0.36019181052436233	-0.2455203382710634	2.114990598009044	-0.3859070738496104	-0.1845491187444691	2.096508790517477	-0.6538417789775776	-0.18195552059113262	2.0938940049795693	-0.7536358119539699	-0.184076427657603	2.142680101866797	-0.721675767777269
67	2.2333333333333334	-0.2007146550466736	1.927770744928071	-0.5539219642887871	-0.21472118814700306	1.9258473736738992	-0.49076843034768225	-0.2427449205273685	1.7809409533412721	-0.46245793773854876	-0.19443948754777804	1.6519474588247942	-0.40744311611746187	-0.20637305569027128	1.6288868251163202	-0.38720568700827573	-0.20575722151463682	1.6363785049286097	-0.36092482427033706	-0.18644180615469613	1.646491457098086	-0.41523611971902297	-0.18854828554945194	1.931127822551738	-0.617930564846064	-0.19119298624936412	1.7823312250426417	-0.5883769747578699	-0.1832459941763167	1.6299747108060807	-0.5539221628493957	-0.20464136700644064	1.558363797053951	-0.5308415775484255	-0.19732488339028262	1.5661668683187662	-0.5657930387032661	-0.17280785806072377	1.617472311362036	-0.5456432338926936	-0.1954162494358844	2.0912264969455214	-0.5763868410004261	-0.21910423717260152	2.1541284831439174	-0.5642205185666668	-0.2078461892965913	2.0851764978615477	-0.49269685735477736	-0.2492129807149576	2.062675080272066	-0.35700275319937524	-0.23696486666578223	2.1149029820491445	-0.3969586380360488	-0.18026788838507718	2.0958490887764474	-0.6568874904685855	-0.18715966124457775	2.0987637885050043	-0.7416559392515556	-0.18325930035133642	2.141562075338776	-0.716146155738127
68	2.2666666666666666	-0.19852819959278498	1.9211859727282674	-0.5546224761758587	-0.21150834171872548	1.9192383943455247	-0.48827059797580324	-0.2395290228175391	1.7659825481737972	-0.44602536184699715	-0.19774196616900477	1.6394802805442998	-0.40534376006485756	-0.20637305569027128	1.6288868251163202	-0.38720568700827573	-0.20575722151463682	1.6363785049286097	-0.36092482427033706	-0.18978295672045178	1.6342695674590013	-0.41236036479304444	-0.18829046322098084	1.923192349915384	-0.6163834174347015	-0.19279712393216678	1.761075250195204	-0.5886472061059631	-0.18780356033503476	1.603977719318112	-0.5413108167702437	-0.20430850926790556	1.5512367187919063	-0.543857904634865	-0.1969447210818517	1.5603853142020871	-0.5744147925721967	-0.18590733778778767	1.5898208913648706	-0.5234878899846623	-0.19563440274586255	2.077211892063269	-0.5733550046933611	-0.21428093528020853	2.1406075519984094	-0.5692823553540436	-0.208174752544203	2.0707414528676624	-0.489142642252193	-0.2447803460192192	2.0455671371796726	-0.35259922780972996	-0.2339475603947169	2.098829792643038	-0.3980784043296788	-0.17910930457798435	2.084610723788556	-0.6596397909586258	-0.17811510924981788	2.0685720788278212	-0.7323541558096672	-0.18492956951594577	2.126260606730427	-0.7185035168837609
